<svg width="24" height="24" viewBox="0 0 24 24" fill="none" xmlns="http://www.w3.org/2000/svg">
<path fill-rule="evenodd" clip-rule="evenodd" d="M20 6C21.1046 6 22 6.89543 22 8V10C22 15.5228 17.5228 20 12 20C6.47715 20 2 15.5228 2 10V8C2 6.89543 2.89543 6 4 6C5.10457 6 6 6.89543 6 8V10C6 13.3137 8.68629 16 12 16C15.3137 16 18 13.3137 18 10V8C18 6.89543 18.8954 6 20 6Z" fill="black"/>
<path fill-rule="evenodd" clip-rule="evenodd" d="M12 16.5C13.1046 16.5 14 17.3954 14 18.5V22C14 23.1046 13.1046 24 12 24C10.8954 24 10 23.1046 10 22V18.5C10 17.3954 10.8954 16.5 12 16.5Z" fill="black"/>
<path d="M8 4C8 1.79086 9.79086 0 12 0C14.2091 0 16 1.79086 16 4V10C16 12.2091 14.2091 14 12 14C9.79086 14 8 12.2091 8 10V4Z" fill="black"/>
</svg>
